<svg xmlns="http://www.w3.org/2000/svg" width="32" height="32" viewBox="0 0 32 32" fill="none">
    <path d="M10 5C9.0111 5 8.0444 5.29325 7.22215 5.84265C6.39991 6.39206 5.75904 7.17295 5.3806 8.08659C5.00217 9.00022 4.90315 10.0055 5.09608 10.9755C5.289 11.9454 5.76521 12.8363 6.46447 13.5355C7.16373 14.2348 8.05465 14.711 9.02455 14.9039C9.99446 15.0969 10.9998 14.9978 11.9134 14.6194C12.827 14.241 13.6079 13.6001 14.1573 12.7779C14.7068 11.9556 15 10.9889 15 10C15 8.67392 14.4732 7.40215 13.5355 6.46447C12.5979 5.52679 11.3261 5 10 5ZM10 13C9.40666 13 8.82664 12.8241 8.33329 12.4944C7.83994 12.1648 7.45543 11.6962 7.22836 11.1481C7.0013 10.5999 6.94189 9.99667 7.05765 9.41473C7.1734 8.83279 7.45912 8.29824 7.87868 7.87868C8.29824 7.45912 8.83279 7.1734 9.41473 7.05765C9.99667 6.94189 10.5999 7.0013 11.1481 7.22836C11.6962 7.45543 12.1648 7.83994 12.4944 8.33329C12.8241 8.82664 13 9.40666 13 10C13 10.7957 12.6839 11.5587 12.1213 12.1213C11.5587 12.6839 10.7957 13 10 13ZM22 15C22.9889 15 23.9556 14.7068 24.7779 14.1573C25.6001 13.6079 26.241 12.827 26.6194 11.9134C26.9978 10.9998 27.0969 9.99446 26.9039 9.02455C26.711 8.05465 26.2348 7.16373 25.5355 6.46447C24.8363 5.76521 23.9454 5.289 22.9755 5.09608C22.0055 4.90315 21.0002 5.00217 20.0866 5.3806C19.173 5.75904 18.3921 6.39991 17.8427 7.22215C17.2932 8.0444 17 9.0111 17 10C17 11.3261 17.5268 12.5979 18.4645 13.5355C19.4022 14.4732 20.6739 15 22 15ZM22 7C22.5933 7 23.1734 7.17595 23.6667 7.50559C24.1601 7.83524 24.5446 8.30377 24.7716 8.85195C24.9987 9.40013 25.0581 10.0033 24.9424 10.5853C24.8266 11.1672 24.5409 11.7018 24.1213 12.1213C23.7018 12.5409 23.1672 12.8266 22.5853 12.9424C22.0033 13.0581 21.4001 12.9987 20.852 12.7716C20.3038 12.5446 19.8352 12.1601 19.5056 11.6667C19.1759 11.1734 19 10.5933 19 10C19 9.20435 19.3161 8.44129 19.8787 7.87868C20.4413 7.31607 21.2044 7 22 7ZM10 17C9.0111 17 8.0444 17.2932 7.22215 17.8427C6.39991 18.3921 5.75904 19.173 5.3806 20.0866C5.00217 21.0002 4.90315 22.0055 5.09608 22.9755C5.289 23.9454 5.76521 24.8363 6.46447 25.5355C7.16373 26.2348 8.05465 26.711 9.02455 26.9039C9.99446 27.0969 10.9998 26.9978 11.9134 26.6194C12.827 26.241 13.6079 25.6001 14.1573 24.7779C14.7068 23.9556 15 22.9889 15 22C15 20.6739 14.4732 19.4022 13.5355 18.4645C12.5979 17.5268 11.3261 17 10 17ZM10 25C9.40666 25 8.82664 24.8241 8.33329 24.4944C7.83994 24.1648 7.45543 23.6962 7.22836 23.1481C7.0013 22.5999 6.94189 21.9967 7.05765 21.4147C7.1734 20.8328 7.45912 20.2982 7.87868 19.8787C8.29824 19.4591 8.83279 19.1734 9.41473 19.0576C9.99667 18.9419 10.5999 19.0013 11.1481 19.2284C11.6962 19.4554 12.1648 19.8399 12.4944 20.3333C12.8241 20.8266 13 21.4067 13 22C13 22.7957 12.6839 23.5587 12.1213 24.1213C11.5587 24.6839 10.7957 25 10 25ZM22 17C21.0111 17 20.0444 17.2932 19.2222 17.8427C18.3999 18.3921 17.759 19.173 17.3806 20.0866C17.0022 21.0002 16.9031 22.0055 17.0961 22.9755C17.289 23.9454 17.7652 24.8363 18.4645 25.5355C19.1637 26.2348 20.0546 26.711 21.0245 26.9039C21.9945 27.0969 22.9998 26.9978 23.9134 26.6194C24.8271 26.241 25.6079 25.6001 26.1574 24.7779C26.7068 23.9556 27 22.9889 27 22C27 20.6739 26.4732 19.4022 25.5355 18.4645C24.5979 17.5268 23.3261 17 22 17ZM22 25C21.4067 25 20.8266 24.8241 20.3333 24.4944C19.8399 24.1648 19.4554 23.6962 19.2284 23.1481C19.0013 22.5999 18.9419 21.9967 19.0576 21.4147C19.1734 20.8328 19.4591 20.2982 19.8787 19.8787C20.2982 19.4591 20.8328 19.1734 21.4147 19.0576C21.9967 18.9419 22.5999 19.0013 23.1481 19.2284C23.6962 19.4554 24.1648 19.8399 24.4944 20.3333C24.8241 20.8266 25 21.4067 25 22C25 22.7957 24.6839 23.5587 24.1213 24.1213C23.5587 24.6839 22.7957 25 22 25Z" fill="#FB6D3A"/>
</svg>