<svg xmlns="http://www.w3.org/2000/svg" width="22" height="22" viewBox="0 0 22 22" fill="none">
    <path d="M5 2.22591e-06C4.0111 2.22591e-06 3.0444 0.293247 2.22215 0.842654C1.39991 1.39206 0.759043 2.17295 0.380605 3.08659C0.00216642 4.00022 -0.0968503 5.00555 0.0960759 5.97545C0.289002 6.94536 0.765206 7.83627 1.46447 8.53554C2.16373 9.2348 3.05465 9.711 4.02455 9.90393C4.99446 10.0969 5.99979 9.99784 6.91342 9.6194C7.82705 9.24096 8.60794 8.6001 9.15735 7.77785C9.70676 6.95561 10 5.98891 10 5C10 3.67392 9.47322 2.40215 8.53554 1.46447C7.59785 0.526786 6.32609 2.22591e-06 5 2.22591e-06ZM5 8C4.40666 8 3.82664 7.82406 3.33329 7.49441C2.83994 7.16477 2.45543 6.69623 2.22836 6.14805C2.0013 5.59987 1.94189 4.99667 2.05765 4.41473C2.1734 3.83279 2.45912 3.29824 2.87868 2.87868C3.29824 2.45912 3.83279 2.1734 4.41473 2.05765C4.99667 1.94189 5.59987 2.0013 6.14805 2.22836C6.69623 2.45543 7.16477 2.83994 7.49441 3.33329C7.82406 3.82664 8 4.40666 8 5C8 5.79565 7.68393 6.55871 7.12132 7.12132C6.55871 7.68393 5.79565 8 5 8ZM17 10C17.9889 10 18.9556 9.70676 19.7779 9.15735C20.6001 8.60794 21.241 7.82705 21.6194 6.91342C21.9978 5.99979 22.0969 4.99446 21.9039 4.02455C21.711 3.05465 21.2348 2.16373 20.5355 1.46447C19.8363 0.765206 18.9454 0.289002 17.9755 0.0960759C17.0055 -0.0968503 16.0002 0.00216642 15.0866 0.380605C14.173 0.759043 13.3921 1.39991 12.8427 2.22215C12.2932 3.0444 12 4.0111 12 5C12 6.32609 12.5268 7.59785 13.4645 8.53554C14.4022 9.47322 15.6739 10 17 10ZM17 2C17.5933 2 18.1734 2.17595 18.6667 2.50559C19.1601 2.83524 19.5446 3.30377 19.7716 3.85195C19.9987 4.40013 20.0581 5.00333 19.9424 5.58527C19.8266 6.16722 19.5409 6.70177 19.1213 7.12132C18.7018 7.54088 18.1672 7.8266 17.5853 7.94236C17.0033 8.05811 16.4001 7.9987 15.852 7.77164C15.3038 7.54458 14.8352 7.16006 14.5056 6.66671C14.1759 6.17337 14 5.59335 14 5C14 4.20435 14.3161 3.44129 14.8787 2.87868C15.4413 2.31607 16.2044 2 17 2ZM5 12C4.0111 12 3.0444 12.2932 2.22215 12.8427C1.39991 13.3921 0.759043 14.173 0.380605 15.0866C0.00216642 16.0002 -0.0968503 17.0055 0.0960759 17.9755C0.289002 18.9454 0.765206 19.8363 1.46447 20.5355C2.16373 21.2348 3.05465 21.711 4.02455 21.9039C4.99446 22.0969 5.99979 21.9978 6.91342 21.6194C7.82705 21.241 8.60794 20.6001 9.15735 19.7779C9.70676 18.9556 10 17.9889 10 17C10 15.6739 9.47322 14.4022 8.53554 13.4645C7.59785 12.5268 6.32609 12 5 12ZM5 20C4.40666 20 3.82664 19.8241 3.33329 19.4944C2.83994 19.1648 2.45543 18.6962 2.22836 18.1481C2.0013 17.5999 1.94189 16.9967 2.05765 16.4147C2.1734 15.8328 2.45912 15.2982 2.87868 14.8787C3.29824 14.4591 3.83279 14.1734 4.41473 14.0576C4.99667 13.9419 5.59987 14.0013 6.14805 14.2284C6.69623 14.4554 7.16477 14.8399 7.49441 15.3333C7.82406 15.8266 8 16.4067 8 17C8 17.7957 7.68393 18.5587 7.12132 19.1213C6.55871 19.6839 5.79565 20 5 20ZM17 12C16.0111 12 15.0444 12.2932 14.2222 12.8427C13.3999 13.3921 12.759 14.173 12.3806 15.0866C12.0022 16.0002 11.9031 17.0055 12.0961 17.9755C12.289 18.9454 12.7652 19.8363 13.4645 20.5355C14.1637 21.2348 15.0546 21.711 16.0245 21.9039C16.9945 22.0969 17.9998 21.9978 18.9134 21.6194C19.8271 21.241 20.6079 20.6001 21.1574 19.7779C21.7068 18.9556 22 17.9889 22 17C22 15.6739 21.4732 14.4022 20.5355 13.4645C19.5979 12.5268 18.3261 12 17 12ZM17 20C16.4067 20 15.8266 19.8241 15.3333 19.4944C14.8399 19.1648 14.4554 18.6962 14.2284 18.1481C14.0013 17.5999 13.9419 16.9967 14.0576 16.4147C14.1734 15.8328 14.4591 15.2982 14.8787 14.8787C15.2982 14.4591 15.8328 14.1734 16.4147 14.0576C16.9967 13.9419 17.5999 14.0013 18.1481 14.2284C18.6962 14.4554 19.1648 14.8399 19.4944 15.3333C19.8241 15.8266 20 16.4067 20 17C20 17.7957 19.6839 18.5587 19.1213 19.1213C18.5587 19.6839 17.7957 20 17 20Z" fill="#FB6D3A"/>
</svg>