<svg xmlns="http://www.w3.org/2000/svg" width="30" height="22" viewBox="0 0 30 22" fill="none">
    <path d="M13.0513 7.81625C13.0097 7.69166 12.9931 7.56011 13.0024 7.4291C13.0117 7.2981 13.0468 7.17021 13.1055 7.05274C13.1642 6.93527 13.2455 6.83052 13.3447 6.74448C13.444 6.65843 13.5592 6.59277 13.6838 6.55125L15.1838 6.05125C15.3341 6.00114 15.4942 5.98747 15.6508 6.01136C15.8075 6.03526 15.9562 6.09604 16.0847 6.1887C16.2133 6.28136 16.318 6.40323 16.3902 6.54429C16.4624 6.68535 16.5 6.84154 16.5 7V12C16.5 12.2652 16.3946 12.5196 16.2071 12.7071C16.0196 12.8946 15.7652 13 15.5 13C15.2348 13 14.9804 12.8946 14.7929 12.7071C14.6054 12.5196 14.5 12.2652 14.5 12V8.3875L14.3162 8.44875C14.1917 8.49029 14.0601 8.50688 13.9291 8.49758C13.7981 8.48827 13.6702 8.45325 13.5527 8.39452C13.4353 8.33578 13.3305 8.25448 13.2445 8.15526C13.1584 8.05604 13.0928 7.94085 13.0513 7.81625ZM30 21C30 21.2652 29.8946 21.5196 29.7071 21.7071C29.5196 21.8946 29.2652 22 29 22H1C0.734784 22 0.48043 21.8946 0.292893 21.7071C0.105357 21.5196 0 21.2652 0 21C0 20.7348 0.105357 20.4804 0.292893 20.2929C0.48043 20.1054 0.734784 20 1 20H2V8C2 7.46957 2.21071 6.96086 2.58579 6.58579C2.96086 6.21071 3.46957 6 4 6H9V2C9 1.46957 9.21071 0.960859 9.58579 0.585786C9.96086 0.210714 10.4696 0 11 0H19C19.5304 0 20.0391 0.210714 20.4142 0.585786C20.7893 0.960859 21 1.46957 21 2V11H26C26.5304 11 27.0391 11.2107 27.4142 11.5858C27.7893 11.9609 28 12.4696 28 13V20H29C29.2652 20 29.5196 20.1054 29.7071 20.2929C29.8946 20.4804 30 20.7348 30 21ZM21 13V20H26V13H21ZM11 20H19V2H11V20ZM4 20H9V8H4V20Z" fill="#FB6D3A"/>
</svg>