<svg xmlns="http://www.w3.org/2000/svg" width="26" height="22" viewBox="0 0 26 22" fill="none">
    <path d="M26 21C26 21.2652 25.8946 21.5196 25.7071 21.7071C25.5196 21.8946 25.2652 22 25 22H1C0.734784 22 0.48043 21.8946 0.292893 21.7071C0.105357 21.5196 0 21.2652 0 21V1C0 0.734784 0.105357 0.48043 0.292893 0.292893C0.48043 0.105357 0.734784 0 1 0C1.26522 0 1.51957 0.105357 1.70711 0.292893C1.89464 0.48043 2 0.734784 2 1V14.5863L8.2925 8.2925C8.38537 8.19952 8.49566 8.12576 8.61706 8.07544C8.73846 8.02512 8.86858 7.99921 9 7.99921C9.13142 7.99921 9.26154 8.02512 9.38294 8.07544C9.50434 8.12576 9.61463 8.19952 9.7075 8.2925L13 11.5863L19.5863 5H17C16.7348 5 16.4804 4.89464 16.2929 4.70711C16.1054 4.51957 16 4.26522 16 4C16 3.73478 16.1054 3.48043 16.2929 3.29289C16.4804 3.10536 16.7348 3 17 3H22C22.2652 3 22.5196 3.10536 22.7071 3.29289C22.8946 3.48043 23 3.73478 23 4V9C23 9.26522 22.8946 9.51957 22.7071 9.70711C22.5196 9.89464 22.2652 10 22 10C21.7348 10 21.4804 9.89464 21.2929 9.70711C21.1054 9.51957 21 9.26522 21 9V6.41375L13.7075 13.7075C13.6146 13.8005 13.5043 13.8742 13.3829 13.9246C13.2615 13.9749 13.1314 14.0008 13 14.0008C12.8686 14.0008 12.7385 13.9749 12.6171 13.9246C12.4957 13.8742 12.3854 13.8005 12.2925 13.7075L9 10.4137L2 17.4137V20H25C25.2652 20 25.5196 20.1054 25.7071 20.2929C25.8946 20.4804 26 20.7348 26 21Z" fill="#FB6D3A"/>
</svg>