<svg xmlns="http://www.w3.org/2000/svg" width="130" height="130" viewBox="0 0 130 130" fill="none">
  <path d="M109.977 20.0231C103.524 13.5612 95.0822 9.46197 86.0136 8.38683C76.945 7.3117 67.7787 9.3234 59.9937 14.0973C52.2088 18.8712 46.2593 26.1288 43.1055 34.6991C39.9516 43.2693 39.7773 52.6522 42.6106 61.3336L14.5692 89.375C13.8114 90.1268 13.2106 91.0216 12.8018 92.0076C12.3929 92.9936 12.1841 94.051 12.1875 95.1184V109.688C12.1875 111.842 13.0436 113.909 14.5673 115.433C16.091 116.957 18.1577 117.813 20.3125 117.813H36.5625C37.64 117.813 38.6733 117.385 39.4352 116.623C40.197 115.861 40.625 114.827 40.625 113.75V105.625H48.75C49.8275 105.625 50.8608 105.197 51.6227 104.435C52.3845 103.673 52.8125 102.64 52.8125 101.563V93.4375H60.9375C61.4712 93.438 61.9997 93.3332 62.4929 93.1293C62.986 92.9254 63.4342 92.6264 63.8118 92.2493L68.6665 87.3895C72.7299 88.7112 76.977 89.3814 81.25 89.375H81.3008C89.3316 89.3653 97.1793 86.9756 103.853 82.5078C110.526 78.04 115.725 71.6947 118.794 64.2733C121.862 56.8519 122.663 48.6876 121.093 40.8116C119.524 32.9357 115.656 25.7015 109.977 20.0231ZM113.75 49.8164C113.197 67.1278 98.6426 81.2297 81.3059 81.25H81.25C77.1376 81.257 73.0616 80.4797 69.2403 78.9598C68.4928 78.6354 67.665 78.5433 66.8644 78.6954C66.0639 78.8475 65.3276 79.2369 64.7512 79.8129L59.2567 85.3125H48.75C47.6726 85.3125 46.6393 85.7405 45.8774 86.5024C45.1156 87.2643 44.6875 88.2976 44.6875 89.375V97.5H36.5625C35.4851 97.5 34.4518 97.928 33.6899 98.6899C32.9281 99.4518 32.5 100.485 32.5 101.563V109.688H20.3125V95.1184L50.1872 65.2489C50.7632 64.6725 51.1525 63.9362 51.3047 63.1356C51.4568 62.3351 51.3647 61.5073 51.0403 60.7598C49.5155 56.9258 48.7382 52.8355 48.75 48.7094C48.75 31.3727 62.8723 16.8188 80.1836 16.2653C84.6304 16.1169 89.0603 16.8831 93.1989 18.5165C97.3375 20.1499 101.097 22.6156 104.243 25.761C107.39 28.9064 109.858 32.6644 111.493 36.8022C113.128 40.9401 113.896 45.3696 113.75 49.8164ZM97.5 38.5938C97.5 39.799 97.1426 40.9772 96.4731 41.9793C95.8035 42.9814 94.8517 43.7625 93.7383 44.2237C92.6248 44.6849 91.3995 44.8056 90.2175 44.5704C89.0354 44.3353 87.9496 43.7549 87.0974 42.9027C86.2451 42.0505 85.6648 40.9647 85.4296 39.7826C85.1945 38.6005 85.3152 37.3753 85.7764 36.2618C86.2376 35.1483 87.0187 34.1966 88.0208 33.527C89.0229 32.8574 90.2011 32.5 91.4063 32.5C93.0225 32.5 94.5724 33.142 95.7152 34.2848C96.858 35.4276 97.5 36.9776 97.5 38.5938Z" fill="#A9D6E5"/>
</svg>