<svg width="16" height="21" viewBox="0 0 16 21" fill="none" xmlns="http://www.w3.org/2000/svg">
<mask id="path-1-outside-1_55_100" maskUnits="userSpaceOnUse" x="-1" y="-1" width="18" height="23" fill="black">
<rect fill="white" x="-1" y="-1" width="18" height="23"/>
<path d="M8.14875 20.196C6.78608 20.196 5.55408 19.9627 4.45275 19.496C3.37008 19.0293 2.51142 18.3573 1.87675 17.48C1.24208 16.6027 0.915417 15.5667 0.89675 14.372H5.09675C5.15275 15.1747 5.43275 15.8093 5.93675 16.276C6.45942 16.7427 7.16875 16.976 8.06475 16.976C8.97942 16.976 9.69808 16.7613 10.2208 16.332C10.7434 15.884 11.0048 15.3053 11.0048 14.596C11.0048 14.0173 10.8274 13.5413 10.4728 13.168C10.1181 12.7947 9.67008 12.5053 9.12875 12.3C8.60608 12.076 7.87808 11.8333 6.94475 11.572C5.67542 11.1987 4.63942 10.8347 3.83675 10.48C3.05275 10.1067 2.37142 9.556 1.79275 8.828C1.23275 8.08133 0.95275 7.092 0.95275 5.86C0.95275 4.70267 1.24208 3.69467 1.82075 2.836C2.39942 1.97733 3.21142 1.324 4.25675 0.875999C5.30208 0.409333 6.49675 0.176 7.84075 0.176C9.85675 0.176 11.4901 0.670666 12.7408 1.66C14.0101 2.63067 14.7101 3.99333 14.8408 5.748H10.5288C10.4914 5.076 10.2021 4.52533 9.66075 4.096C9.13808 3.648 8.43808 3.424 7.56075 3.424C6.79542 3.424 6.17942 3.62 5.71275 4.012C5.26475 4.404 5.04075 4.97333 5.04075 5.72C5.04075 6.24267 5.20875 6.68133 5.54475 7.036C5.89942 7.372 6.32875 7.652 6.83275 7.876C7.35542 8.08133 8.08342 8.324 9.01675 8.604C10.2861 8.97733 11.3221 9.35067 12.1248 9.724C12.9274 10.0973 13.6181 10.6573 14.1968 11.404C14.7754 12.1507 15.0648 13.1307 15.0648 14.344C15.0648 15.3893 14.7941 16.36 14.2527 17.256C13.7114 18.152 12.9181 18.8707 11.8728 19.412C10.8274 19.9347 9.58608 20.196 8.14875 20.196Z"/>
</mask>
<path d="M8.14875 20.196C6.78608 20.196 5.55408 19.9627 4.45275 19.496C3.37008 19.0293 2.51142 18.3573 1.87675 17.48C1.24208 16.6027 0.915417 15.5667 0.89675 14.372H5.09675C5.15275 15.1747 5.43275 15.8093 5.93675 16.276C6.45942 16.7427 7.16875 16.976 8.06475 16.976C8.97942 16.976 9.69808 16.7613 10.2208 16.332C10.7434 15.884 11.0048 15.3053 11.0048 14.596C11.0048 14.0173 10.8274 13.5413 10.4728 13.168C10.1181 12.7947 9.67008 12.5053 9.12875 12.3C8.60608 12.076 7.87808 11.8333 6.94475 11.572C5.67542 11.1987 4.63942 10.8347 3.83675 10.48C3.05275 10.1067 2.37142 9.556 1.79275 8.828C1.23275 8.08133 0.95275 7.092 0.95275 5.86C0.95275 4.70267 1.24208 3.69467 1.82075 2.836C2.39942 1.97733 3.21142 1.324 4.25675 0.875999C5.30208 0.409333 6.49675 0.176 7.84075 0.176C9.85675 0.176 11.4901 0.670666 12.7408 1.66C14.0101 2.63067 14.7101 3.99333 14.8408 5.748H10.5288C10.4914 5.076 10.2021 4.52533 9.66075 4.096C9.13808 3.648 8.43808 3.424 7.56075 3.424C6.79542 3.424 6.17942 3.62 5.71275 4.012C5.26475 4.404 5.04075 4.97333 5.04075 5.72C5.04075 6.24267 5.20875 6.68133 5.54475 7.036C5.89942 7.372 6.32875 7.652 6.83275 7.876C7.35542 8.08133 8.08342 8.324 9.01675 8.604C10.2861 8.97733 11.3221 9.35067 12.1248 9.724C12.9274 10.0973 13.6181 10.6573 14.1968 11.404C14.7754 12.1507 15.0648 13.1307 15.0648 14.344C15.0648 15.3893 14.7941 16.36 14.2527 17.256C13.7114 18.152 12.9181 18.8707 11.8728 19.412C10.8274 19.9347 9.58608 20.196 8.14875 20.196Z" fill="white"/>
<path d="M4.45275 19.496L4.05691 20.4143L4.0626 20.4168L4.45275 19.496ZM1.87675 17.48L1.06653 18.0661L1.87675 17.48ZM0.89675 14.372V13.372H-0.118997L-0.103128 14.3876L0.89675 14.372ZM5.09675 14.372L6.09433 14.3024L6.02941 13.372H5.09675V14.372ZM5.93675 16.276L5.25734 17.0098L5.26398 17.0159L5.27073 17.0219L5.93675 16.276ZM10.2207 16.332L10.8555 17.1047L10.8636 17.0981L10.8715 17.0913L10.2207 16.332ZM10.4727 13.168L9.74775 13.8567L10.4727 13.168ZM9.12875 12.3L8.73483 13.2191L8.7543 13.2275L8.7741 13.235L9.12875 12.3ZM6.94475 11.572L6.66256 12.5314L6.67512 12.535L6.94475 11.572ZM3.83675 10.48L3.40682 11.3829L3.41962 11.389L3.43259 11.3947L3.83675 10.48ZM1.79275 8.828L0.99275 9.428L1.00118 9.43924L1.00993 9.45024L1.79275 8.828ZM1.82075 2.836L2.65002 3.39485L1.82075 2.836ZM4.25675 0.875999L4.65067 1.79514L4.65756 1.79219L4.6644 1.78914L4.25675 0.875999ZM12.7408 1.66L12.1203 2.44428L12.1268 2.44937L12.1333 2.45436L12.7408 1.66ZM14.8408 5.748V6.748H15.918L15.838 5.67374L14.8408 5.748ZM10.5288 5.748L9.53029 5.80347L9.58276 6.748H10.5288V5.748ZM9.66075 4.096L9.00996 4.85526L9.02443 4.86766L9.03936 4.8795L9.66075 4.096ZM5.71275 4.012L5.06956 3.24629L5.06184 3.25278L5.05424 3.25942L5.71275 4.012ZM5.54475 7.036L4.8188 7.72374L4.83739 7.74336L4.85701 7.76195L5.54475 7.036ZM6.83275 7.876L6.42661 8.78981L6.44667 8.79873L6.4671 8.80675L6.83275 7.876ZM9.01675 8.604L8.7294 9.56184L8.73458 9.56337L9.01675 8.604ZM14.1968 11.404L13.4063 12.0166L14.1968 11.404ZM14.2528 17.256L13.3968 16.7389L14.2528 17.256ZM11.8728 19.412L12.32 20.3064L12.3263 20.3033L12.3326 20.3L11.8728 19.412ZM8.14875 19.196C6.90156 19.196 5.80479 18.9828 4.8429 18.5752L4.0626 20.4168C5.30338 20.9425 6.67061 21.196 8.14875 21.196V19.196ZM4.84858 18.5777C3.91628 18.1758 3.20669 17.6123 2.68697 16.8939L1.06653 18.0661C1.81614 19.1024 2.82389 19.8828 4.05692 20.4143L4.84858 18.5777ZM2.68697 16.8939C2.18493 16.1999 1.91244 15.3681 1.89663 14.3564L-0.103128 14.3876C-0.081603 15.7652 0.299237 17.0055 1.06653 18.0661L2.68697 16.8939ZM0.89675 15.372H5.09675V13.372H0.89675V15.372ZM4.09917 14.4416C4.16964 15.4516 4.53507 16.341 5.25734 17.0098L6.61616 15.5422C6.33043 15.2777 6.13586 14.8977 6.09433 14.3024L4.09917 14.4416ZM5.27073 17.0219C6.02325 17.6938 6.99366 17.976 8.06475 17.976V15.976C7.34384 15.976 6.89559 15.7915 6.60277 15.5301L5.27073 17.0219ZM8.06475 17.976C9.12942 17.976 10.0997 17.7255 10.8555 17.1047L9.58601 15.5593C9.29645 15.7971 8.82941 15.976 8.06475 15.976V17.976ZM10.8715 17.0913C11.6235 16.4467 12.0048 15.5871 12.0048 14.596H10.0048C10.0048 15.0236 9.86336 15.3213 9.56996 15.5727L10.8715 17.0913ZM12.0048 14.596C12.0048 13.7954 11.7513 13.0619 11.1977 12.4792L9.74775 13.8567C9.90353 14.0207 10.0048 14.2393 10.0048 14.596H12.0048ZM11.1977 12.4792C10.7275 11.9842 10.1475 11.6169 9.48341 11.365L8.7741 13.235C9.19263 13.3938 9.50869 13.6051 9.74775 13.8567L11.1977 12.4792ZM9.52267 11.3809C8.94121 11.1317 8.16505 10.8752 7.21438 10.609L6.67512 12.535C7.59112 12.7914 8.27096 13.0203 8.73483 13.2191L9.52267 11.3809ZM7.22692 10.6126C5.98057 10.2461 4.98945 9.89606 4.24091 9.56531L3.43259 11.3947C4.28938 11.7733 5.37026 12.1513 6.66258 12.5314L7.22692 10.6126ZM4.26668 9.57714C3.62977 9.27385 3.06637 8.82321 2.57557 8.20576L1.00993 9.45024C1.67646 10.2888 2.47573 10.9395 3.40682 11.3829L4.26668 9.57714ZM2.59275 8.228C2.19863 7.70251 1.95275 6.94463 1.95275 5.86H-0.0472499C-0.0472499 7.23937 0.266867 8.46016 0.99275 9.428L2.59275 8.228ZM1.95275 5.86C1.95275 4.87747 2.19549 4.0693 2.65002 3.39485L0.991484 2.27715C0.288673 3.32003 -0.0472499 4.52787 -0.0472499 5.86H1.95275ZM2.65002 3.39485C3.11075 2.71118 3.76402 2.17514 4.65067 1.79514L3.86283 -0.0431461C2.65881 0.472863 1.68808 1.24349 0.991484 2.27715L2.65002 3.39485ZM4.6644 1.78914C5.56108 1.38883 6.61305 1.176 7.84075 1.176V-0.824C6.38046 -0.824 5.04309 -0.570168 3.8491 -0.0371389L4.6644 1.78914ZM7.84075 1.176C9.69213 1.176 11.0886 1.62809 12.1203 2.44428L13.3612 0.875715C11.8916 -0.28676 10.0214 -0.824 7.84075 -0.824V1.176ZM12.1333 2.45436C13.1514 3.23292 13.7316 4.32003 13.8435 5.82226L15.838 5.67374C15.6885 3.66663 14.8687 2.02841 13.3482 0.865642L12.1333 2.45436ZM14.8408 4.748H10.5288V6.748H14.8408V4.748ZM11.5272 5.69253C11.4735 4.72657 11.0407 3.91408 10.2821 3.3125L9.03936 4.8795C9.36351 5.13659 9.50929 5.42543 9.53029 5.80347L11.5272 5.69253ZM10.3115 3.33674C9.5624 2.69462 8.60957 2.424 7.56075 2.424V4.424C8.26659 4.424 8.71377 4.60138 9.00996 4.85526L10.3115 3.33674ZM7.56075 2.424C6.62201 2.424 5.75868 2.66743 5.06956 3.24629L6.35594 4.7777C6.60015 4.57257 6.96883 4.424 7.56075 4.424V2.424ZM5.05424 3.25942C4.33608 3.88782 4.04075 4.76404 4.04075 5.72H6.04075C6.04075 5.18263 6.19342 4.92018 6.37126 4.76458L5.05424 3.25942ZM4.04075 5.72C4.04075 6.47891 4.29378 7.16956 4.8188 7.72374L6.2707 6.34826C6.12372 6.1931 6.04075 6.00642 6.04075 5.72H4.04075ZM4.85701 7.76195C5.30409 8.1855 5.83199 8.52554 6.42661 8.78981L7.23889 6.96219C6.82551 6.77846 6.49475 6.5585 6.23249 6.31005L4.85701 7.76195ZM6.4671 8.80675C7.02746 9.02689 7.78576 9.27873 8.7294 9.56183L9.3041 7.64617C8.38107 7.36926 7.68337 7.13577 7.1984 6.94525L6.4671 8.80675ZM8.73458 9.56337C9.97705 9.9288 10.9617 10.2859 11.703 10.6307L12.5465 8.81728C11.6825 8.41541 10.5951 8.02587 9.29892 7.64463L8.73458 9.56337ZM11.703 10.6307C12.3515 10.9323 12.9186 11.3873 13.4063 12.0166L14.9872 10.7914C14.3175 9.9274 13.5034 9.26235 12.5465 8.81728L11.703 10.6307ZM13.4063 12.0166C13.8147 12.5435 14.0648 13.2887 14.0648 14.344H16.0648C16.0648 12.9726 15.7361 11.7579 14.9872 10.7914L13.4063 12.0166ZM14.0648 14.344C14.0648 15.2068 13.8441 15.9987 13.3968 16.7389L15.1087 17.7731C15.7441 16.7213 16.0648 15.5719 16.0648 14.344H14.0648ZM13.3968 16.7389C12.9623 17.4581 12.3155 18.0566 11.4129 18.524L12.3326 20.3C13.5207 19.6847 14.4605 18.8459 15.1087 17.7731L13.3968 16.7389ZM11.4255 18.5176C10.5473 18.9567 9.46588 19.196 8.14875 19.196V21.196C9.70629 21.196 11.1075 20.9127 12.32 20.3064L11.4255 18.5176Z" fill="black" mask="url(#path-1-outside-1_55_100)"/>
</svg>
