<svg xmlns="http://www.w3.org/2000/svg" width="60" height="62" viewBox="0 0 60 62" fill="none">
<path d="M30 5.7406C25.1791 5.7406 20.4664 7.19954 16.458 9.93294C12.4495 12.6663 9.32533 16.5514 7.48045 21.0969C5.63556 25.6423 5.15285 30.6441 6.09337 35.4695C7.03388 40.2949 9.35538 44.7274 12.7643 48.2063C16.1732 51.6853 20.5164 54.0545 25.2447 55.0143C29.973 55.9742 34.874 55.4815 39.3279 53.5988C43.7819 51.716 47.5887 48.5276 50.2671 44.4367C52.9454 40.3459 54.375 35.5364 54.375 30.6165C54.3682 24.0211 51.7979 17.6979 47.2282 13.0343C42.6585 8.37064 36.4626 5.74757 30 5.7406ZM30 45.9247C29.4438 45.9247 28.9 45.7563 28.4375 45.4409C27.975 45.1256 27.6145 44.6773 27.4016 44.1528C27.1887 43.6283 27.133 43.0512 27.2416 42.4944C27.3501 41.9376 27.6179 41.4262 28.0113 41.0248C28.4046 40.6234 28.9057 40.35 29.4513 40.2392C29.9969 40.1285 30.5624 40.1853 31.0763 40.4026C31.5902 40.6198 32.0295 40.9877 32.3385 41.4597C32.6476 41.9318 32.8125 42.4867 32.8125 43.0544C32.8125 43.8156 32.5162 44.5457 31.9887 45.084C31.4613 45.6223 30.7459 45.9247 30 45.9247ZM31.875 34.2713V34.4435C31.875 34.951 31.6775 35.4377 31.3258 35.7966C30.9742 36.1554 30.4973 36.357 30 36.357C29.5027 36.357 29.0258 36.1554 28.6742 35.7966C28.3226 35.4377 28.125 34.951 28.125 34.4435V32.53C28.125 32.0225 28.3226 31.5358 28.6742 31.1769C29.0258 30.8181 29.5027 30.6165 30 30.6165C33.1008 30.6165 35.625 28.4637 35.625 25.8326C35.625 23.2015 33.1008 21.0488 30 21.0488C26.8992 21.0488 24.375 23.2015 24.375 25.8326V26.7894C24.375 27.2969 24.1775 27.7836 23.8258 28.1425C23.4742 28.5013 22.9973 28.7029 22.5 28.7029C22.0027 28.7029 21.5258 28.5013 21.1742 28.1425C20.8226 27.7836 20.625 27.2969 20.625 26.7894V25.8326C20.625 21.0847 24.8297 17.2218 30 17.2218C35.1703 17.2218 39.375 21.0847 39.375 25.8326C39.375 29.9898 36.15 33.47 31.875 34.2713Z" fill="#FB6D3A"/>
</svg>