<svg xmlns="http://www.w3.org/2000/svg" width="32" height="32" viewBox="0 0 32 32" fill="none">
    <path d="M30.4137 11.3638L14.3637 27.4138C13.9887 27.7885 13.4802 27.9991 12.95 27.9991C12.4198 27.9991 11.9113 27.7885 11.5362 27.4138L2.58372 18.4138C2.20931 18.0388 1.99902 17.5305 1.99902 17.0006C1.99902 16.4707 2.20931 15.9625 2.58372 15.5875L5.08372 13.0875C5.45855 12.7142 5.96599 12.5047 6.49497 12.5047C7.02395 12.5047 7.53139 12.7142 7.90622 13.0875L13 18.0275L25.095 6.08125C25.4699 5.70761 25.9776 5.4978 26.5068 5.4978C27.0361 5.4978 27.5438 5.70761 27.9187 6.08125L30.4125 8.52375C30.6 8.7096 30.7489 8.93073 30.8505 9.17441C30.9522 9.41808 31.0046 9.67947 31.0047 9.94349C31.0048 10.2075 30.9526 10.469 30.8512 10.7127C30.7498 10.9565 30.6011 11.1777 30.4137 11.3638Z" fill="white"/>
</svg>